<svg xmlns="http://www.w3.org/2000/svg" xml:space="preserve" width="9.04304in" height="1.90076in" shape-rendering="geometricPrecision" text-rendering="geometricPrecision" image-rendering="optimizeQuality" fill-rule="evenodd" clip-rule="evenodd" viewBox="0 0 9043 1901" xmlns:xlink="http://www.w3.org/1999/xlink" class="ib-main-logo"><g id="Layer_x0020_1"><metadata id="CorelCorpID_0Corel-Layer"></metadata><g id="_232296544"><path fill="#676766" d="M8297 1144l-77 0c-35,1 -70,4 -104,12 -27,6 -53,17 -76,32 -19,13 -35,29 -45,50 -11,21 -16,45 -16,68 0,18 2,36 9,53 6,16 15,29 26,42 11,12 24,21 40,28 16,7 32,9 49,9 27,0 54,-4 79,-16 24,-11 44,-28 61,-49 19,-22 32,-47 41,-75 10,-32 13,-65 13,-98l0 -57zm-747 0l-77 0c-35,1 -70,4 -104,12 -27,6 -53,17 -76,32 -19,13 -35,29 -45,50 -11,21 -16,45 -16,68 0,18 2,36 9,53 6,16 15,29 26,42 11,12 24,21 40,28 16,7 32,9 49,9 27,0 54,-4 79,-16 24,-11 44,-28 61,-49 19,-22 32,-47 41,-75 10,-32 13,-65 13,-98l0 -57zm-1412 0l-77 0c-35,1 -70,4 -104,12 -27,6 -53,17 -76,32 -19,13 -35,29 -45,50 -11,21 -16,45 -16,68 0,18 2,36 9,53 6,16 15,29 26,42 11,12 24,21 40,28 16,7 32,9 49,9 27,0 54,-4 79,-16 24,-11 44,-28 61,-49 19,-22 32,-47 41,-75 10,-32 13,-65 13,-98l0 -57zm-948 -307c-13,3 -26,8 -38,15 -26,14 -47,35 -63,59 -19,29 -32,61 -40,94 -10,41 -14,84 -14,126 0,41 4,82 14,122 9,34 22,66 40,95 17,24 37,45 62,60 24,14 49,20 77,20 27,0 52,-6 75,-19 24,-14 43,-35 58,-59 19,-28 31,-60 39,-93 9,-39 13,-80 13,-121 0,-43 -3,-86 -13,-127 -7,-33 -19,-67 -38,-96 -14,-24 -33,-46 -57,-60 -13,-8 -27,-14 -42,-17 -25,-5 -48,-5 -73,1zm3557 -6c19,-34 44,-72 71,-93 25,-19 54,-29 86,-29 49,0 94,18 135,45l4 3 -48 139 -7 -4c-27,-17 -57,-29 -90,-29 -27,0 -50,9 -71,25 -23,19 -37,44 -45,72 -15,51 -21,104 -21,157l0 428 -140 0 0 -817 127 0 0 103zm-440 596c-11,17 -23,32 -36,47 -17,19 -36,35 -58,47 -21,12 -43,21 -67,26 -25,5 -51,7 -76,7 -32,0 -64,-4 -94,-15 -29,-10 -54,-28 -75,-50 -22,-23 -38,-49 -48,-78 -11,-32 -16,-66 -16,-99 0,-41 7,-82 24,-119 16,-35 41,-65 72,-88 35,-26 76,-43 118,-55 51,-13 106,-18 159,-18l87 -2 0 -8c0,-28 -3,-55 -11,-82 -7,-23 -18,-44 -34,-62 -15,-17 -32,-29 -53,-37 -23,-9 -47,-13 -71,-13 -16,0 -31,1 -46,4 -16,3 -32,7 -48,12 -17,6 -34,12 -50,21 -17,9 -34,19 -50,30l-10 7 -2 -142 4 -2c18,-9 36,-17 55,-24 19,-8 38,-14 58,-18 20,-6 41,-9 61,-12 22,-2 44,-3 67,-3 40,0 81,6 118,22 34,15 62,37 85,66 25,31 41,69 51,107 12,46 17,94 17,142l0 0 0 507 -130 0 0 -118zm-747 0c-11,17 -23,32 -36,47 -17,19 -36,35 -58,47 -21,12 -43,21 -67,26 -25,5 -51,7 -76,7 -32,0 -64,-4 -94,-15 -29,-10 -54,-28 -75,-50 -22,-23 -38,-49 -48,-78 -11,-32 -16,-66 -16,-99 0,-41 7,-82 24,-119 16,-35 41,-65 72,-88 35,-26 76,-43 118,-55 51,-13 106,-18 159,-18l87 -2 0 -8c0,-28 -3,-55 -11,-82 -7,-23 -18,-44 -34,-62 -15,-17 -32,-29 -53,-37 -23,-9 -47,-13 -71,-13 -16,0 -31,1 -46,4 -16,3 -32,7 -48,12 -17,6 -34,12 -50,21 -17,9 -34,19 -50,30l-10 7 -2 -142 4 -2c18,-9 36,-17 55,-24 19,-8 38,-14 58,-18 20,-6 41,-9 61,-12 22,-2 44,-3 67,-3 40,0 81,6 118,22 34,15 62,37 85,66 25,31 41,69 51,107 12,46 17,94 17,142l0 0 0 507 -130 0 0 -118zm-977 -13l400 0 0 131 -563 0 0 -138 394 -557 -378 0 0 -129 547 0 0 135 -400 558zm-436 13c-11,17 -23,32 -36,47 -17,19 -36,35 -58,47 -21,12 -43,21 -67,26 -25,5 -51,7 -76,7 -32,0 -64,-4 -94,-15 -29,-10 -54,-28 -75,-50 -22,-23 -38,-49 -48,-78 -11,-32 -16,-66 -16,-99 0,-41 7,-82 24,-119 16,-35 41,-65 72,-88 35,-26 76,-43 118,-55 51,-13 106,-18 159,-18l87 -2 0 -8c0,-28 -3,-55 -11,-82 -7,-23 -18,-44 -34,-62 -15,-17 -32,-29 -53,-37 -23,-9 -47,-13 -71,-13 -16,0 -31,1 -46,4 -16,3 -32,7 -48,12 -17,6 -34,12 -50,21 -17,9 -34,19 -50,30l-10 7 -2 -142 4 -2c18,-9 36,-17 55,-24 19,-8 38,-14 58,-18 20,-6 41,-9 61,-12 22,-2 44,-3 67,-3 40,0 81,6 118,22 34,15 62,37 85,66 25,31 41,69 51,107 12,46 17,94 17,142l0 0 0 507 -130 0 0 -118zm-1113 -593c10,-16 21,-31 34,-45 16,-19 35,-35 56,-47 20,-13 42,-22 65,-28 25,-7 50,-10 76,-10 43,0 85,9 123,29 39,21 70,51 95,87 28,40 48,85 61,132 15,55 20,114 20,171 0,59 -6,118 -20,175 -13,50 -33,97 -62,140 -25,37 -56,69 -96,90 -37,20 -78,29 -121,29 -26,0 -52,-3 -77,-10 -25,-7 -48,-18 -69,-33 -22,-16 -42,-35 -59,-56 -14,-17 -26,-36 -36,-55l0 143 -132 0 0 -1222 143 0 0 511z"></path><path fill="#373736" d="M3956 1062c-2,-33 -6,-66 -16,-98 -8,-27 -20,-54 -37,-77 -14,-19 -32,-36 -54,-47 -22,-11 -46,-16 -70,-16 -24,0 -48,5 -69,16 -22,12 -41,28 -56,48 -18,23 -32,50 -41,78 -10,31 -16,64 -20,96l362 -2zm-1175 183c14,57 44,120 97,150 45,26 107,24 152,0 82,-44 117,-165 114,-280 -5,-259 -176,-339 -286,-244 -93,81 -106,259 -77,374zm-463 -101l-77 0c-35,1 -70,4 -104,12 -27,6 -53,17 -76,32 -19,13 -35,29 -45,50 -11,21 -16,45 -16,68 0,18 2,36 9,53 6,16 15,29 26,42 11,12 24,21 40,28 16,7 32,9 49,9 27,0 54,-4 79,-16 24,-11 44,-28 61,-49 19,-22 32,-47 41,-75 10,-32 13,-65 13,-98l0 -57zm-2056 -994l-112 112 213 213 112 -112 -213 -213zm4362 726c-14,-6 -28,-12 -43,-18 -15,-5 -29,-10 -44,-14 -14,-4 -29,-7 -44,-9 -15,-2 -31,-2 -46,-2 -16,0 -31,1 -47,5 -13,4 -25,9 -36,17 -9,8 -17,17 -22,27 -6,11 -8,24 -8,36 0,11 2,22 7,32 5,11 11,21 19,30 12,12 27,23 41,32 22,15 46,28 70,41 33,17 65,37 95,59 22,17 44,36 62,58 14,19 24,41 31,63 8,24 11,49 11,75 0,35 -6,70 -20,102 -13,31 -34,58 -61,79 -27,23 -59,39 -93,48 -39,11 -80,15 -121,15 -16,0 -33,-1 -49,-2 -16,-2 -32,-3 -48,-6 -16,-2 -32,-6 -47,-11 -16,-5 -32,-11 -47,-19l-4 -2 5 -143 9 6c15,10 31,19 48,25 16,6 31,12 47,18 15,4 31,8 47,10 15,3 30,4 45,4 19,0 39,-2 57,-8 16,-5 30,-12 43,-23 12,-10 21,-21 27,-36 6,-15 9,-31 9,-47 0,-12 -2,-24 -5,-35 -4,-11 -9,-21 -16,-30 -9,-12 -24,-23 -37,-32 -22,-15 -46,-29 -69,-43 -32,-18 -65,-38 -94,-60 -22,-16 -43,-35 -61,-56 -14,-18 -25,-39 -32,-61 -7,-22 -10,-46 -10,-69 0,-31 5,-62 18,-90 13,-28 31,-51 55,-70 25,-21 54,-35 84,-45 34,-11 71,-15 107,-15 15,0 29,1 44,2 15,1 30,3 45,5 15,2 31,6 46,10 15,4 30,9 45,15l4 2 -6 134 -9 -4zm-1035 299c3,37 9,74 22,109 11,32 28,61 50,86 21,23 46,40 74,52 31,13 65,17 98,17 16,0 32,-1 48,-4 16,-3 31,-6 47,-10 17,-6 33,-12 49,-18 17,-7 34,-16 50,-26l10 -6 0 143 -3 2c-16,9 -33,16 -50,21 -18,5 -36,10 -55,14 -19,4 -39,6 -59,8 -21,2 -43,3 -64,3 -51,0 -102,-8 -149,-28 -45,-19 -82,-50 -113,-88 -33,-42 -56,-90 -71,-141 -17,-59 -24,-120 -24,-181 0,-58 6,-117 24,-173 15,-49 38,-95 70,-136 29,-37 65,-67 108,-88 43,-21 89,-30 137,-30 44,0 88,8 128,27 39,19 71,48 97,82 29,39 49,83 62,129 14,52 20,106 20,160l0 0 0 74 -504 0zm-439 226c-10,18 -22,36 -36,52 -17,20 -35,38 -57,53 -21,14 -43,25 -67,31 -24,6 -48,9 -72,9 -43,0 -84,-9 -122,-28 -39,-20 -71,-49 -97,-85 -28,-40 -48,-86 -62,-133 -15,-54 -22,-111 -22,-167 0,-59 6,-119 21,-177 13,-49 33,-96 63,-137 26,-36 58,-66 97,-88 38,-21 80,-30 123,-30 27,0 53,3 78,11 24,7 47,18 68,32 22,15 41,33 57,53 13,16 24,32 33,50l0 -126 133 0 0 725c0,66 -6,133 -22,197 -13,51 -35,101 -68,142 -30,39 -68,67 -113,86 -50,20 -104,28 -157,28 -21,0 -42,-1 -63,-3 -21,-2 -42,-5 -63,-10 -20,-4 -40,-10 -59,-16 -19,-7 -38,-14 -56,-23l-4 -2 11 -149 9 5c18,10 36,20 55,28 17,8 34,15 52,20 17,5 34,9 51,13 15,3 31,5 46,5 35,0 71,-5 103,-20 30,-13 55,-32 76,-57 23,-27 38,-59 47,-92 11,-40 15,-82 15,-124l0 -74zm-822 27c-11,17 -23,32 -36,47 -17,19 -36,35 -58,47 -21,12 -43,21 -67,26 -25,5 -51,7 -76,7 -32,0 -64,-4 -94,-15 -29,-10 -54,-28 -75,-50 -22,-23 -38,-49 -48,-78 -11,-32 -16,-66 -16,-99 0,-41 7,-82 24,-119 16,-35 41,-65 72,-88 35,-26 76,-43 118,-55 51,-13 106,-18 159,-18l87 -2 0 -8c0,-28 -3,-55 -11,-82 -7,-23 -18,-44 -34,-62 -15,-17 -32,-29 -53,-37 -23,-9 -47,-13 -71,-13 -16,0 -31,1 -46,4 -16,3 -32,7 -48,12 -17,6 -34,12 -50,21 -17,9 -34,19 -50,30l-10 7 -2 -142 4 -2c18,-9 36,-17 55,-24 19,-8 38,-14 58,-18 20,-6 41,-9 61,-12 22,-2 44,-3 67,-3 40,0 81,6 118,22 34,15 62,37 85,66 25,31 41,69 51,107 12,46 17,94 17,142l0 0 0 507 -130 0 0 -118zm-1530 -576c10,-17 20,-34 33,-49 16,-21 35,-38 57,-53 20,-15 42,-27 66,-34 24,-7 49,-11 74,-11 25,0 49,3 72,12 22,8 43,20 61,35 19,16 35,36 48,57 12,20 21,41 29,63 11,-22 24,-44 40,-63 16,-21 35,-41 57,-57 21,-15 43,-27 68,-35 25,-8 50,-12 76,-12 35,0 70,6 102,23 31,16 55,39 73,68 22,33 36,71 45,109 11,48 14,98 14,147l0 495 -143 0 0 -463c0,-35 -2,-70 -8,-104 -5,-25 -12,-51 -25,-72 -10,-17 -24,-32 -41,-42 -17,-10 -37,-15 -57,-15 -26,0 -51,5 -74,19 -23,13 -41,33 -55,55 -17,27 -28,57 -35,88 -9,38 -12,78 -12,118l0 418 -146 0 0 -463c0,-35 -2,-72 -8,-107 -4,-24 -12,-50 -25,-72 -9,-18 -23,-32 -41,-41 -19,-10 -41,-14 -63,-14 -24,0 -47,6 -68,19 -23,14 -40,34 -54,56 -17,27 -29,57 -36,87 -9,38 -13,78 -13,117l0 418 -142 0 0 -824 132 0 0 130zm-493 -130l145 0 0 824 -145 0 0 -824zm-42 -722l363 363 -263 263 -363 -363 263 -263z"></path></g></g></svg>